<?xml version="1.0" encoding="UTF-8" standalone="no"?>
<!-- Created with Inkscape (http://www.inkscape.org/) -->

<svg
   xmlns:dc="http://purl.org/dc/elements/1.1/"
   xmlns:cc="http://creativecommons.org/ns#"
   xmlns:rdf="http://www.w3.org/1999/02/22-rdf-syntax-ns#"
   xmlns:svg="http://www.w3.org/2000/svg"
   xmlns="http://www.w3.org/2000/svg"
   xmlns:sodipodi="http://sodipodi.sourceforge.net/DTD/sodipodi-0.dtd"
   xmlns:inkscape="http://www.inkscape.org/namespaces/inkscape"
   version="1.1"
   id="svg815"
   xml:space="preserve"
   width="382.66666"
   height="458.66666"
   viewBox="0 0 382.66666 458.66666"
   sodipodi:docname="sw.svg"
   inkscape:version="0.92.2 (5c3e80d, 2017-08-06)"><metadata
     id="metadata821"><rdf:RDF><cc:Work
         rdf:about=""><dc:format>image/svg+xml</dc:format><dc:type
           rdf:resource="http://purl.org/dc/dcmitype/StillImage" /><dc:title></dc:title></cc:Work></rdf:RDF></metadata><defs
     id="defs819" /><sodipodi:namedview
     pagecolor="#ffffff"
     bordercolor="#666666"
     borderopacity="1"
     objecttolerance="10"
     gridtolerance="10"
     guidetolerance="10"
     inkscape:pageopacity="0"
     inkscape:pageshadow="2"
     inkscape:window-width="1920"
     inkscape:window-height="1017"
     id="namedview817"
     showgrid="false"
     inkscape:zoom="1.8531977"
     inkscape:cx="191.33333"
     inkscape:cy="337.25489"
     inkscape:window-x="-8"
     inkscape:window-y="-8"
     inkscape:window-maximized="1"
     inkscape:current-layer="g823" /><g
     id="g823"
     inkscape:groupmode="layer"
     inkscape:label="ink_ext_XXXXXX"
     transform="matrix(1.3333333,0,0,-1.3333333,0,458.66667)"><path
       inkscape:connector-curvature="0"
       id="path827"
       style="fill:none;stroke:#ff0032;stroke-width:2.56236005;stroke-linecap:butt;stroke-linejoin:miter;stroke-miterlimit:4;stroke-dasharray:none;stroke-opacity:1"
       d="M 137.262,284.176 C 137.234,276.082 105.273,267.988 70.1129,259.895 34.9531,251.801 2.99219,243.707 2.96484,235.613 2.93789,227.52 34.9531,219.426 70.1129,211.332 105.273,203.238 137.234,195.145 137.262,187.051 137.289,178.957 105.273,170.863 70.1129,162.77 34.9531,154.676 2.99219,146.582 2.96484,138.488 2.93789,130.395 34.9531,122.301 70.1129,114.207 105.273,106.113 137.234,98.0199 137.262,89.9262 137.289,81.832 105.273,73.7379 70.1129,65.6449 34.9531,57.5512 2.99219,49.457 2.96484,41.3629 2.93789,33.2699 34.9531,25.1762 70.1129,17.0781" /><path
       inkscape:connector-curvature="0"
       id="path829"
       style="fill:none;stroke:#0700ff;stroke-width:2.56236005;stroke-linecap:butt;stroke-linejoin:miter;stroke-miterlimit:4;stroke-dasharray:none;stroke-opacity:1"
       d="m 70.1129,284.176 c 35.8711,-8.094 68.4851,-16.188 68.5121,-24.281 0.027,-8.094 -32.641,-16.188 -68.5121,-24.282 C 34.2379,227.52 1.62891,219.426 1.59805,211.332 1.56992,203.238 34.2379,195.145 70.1129,187.051 105.984,178.957 138.598,170.863 138.625,162.77 138.652,154.676 105.984,146.582 70.1129,138.488 34.2379,130.395 1.62891,122.301 1.59805,114.207 1.56992,106.113 34.2379,98.0199 70.1129,89.9262 105.984,81.832 138.598,73.7379 138.625,65.6449 138.652,57.5512 105.984,49.457 70.1129,41.3629 34.2379,33.2699 1.62891,25.1762 1.59805,17.0781" /><path
       inkscape:connector-curvature="0"
       id="path831"
       style="fill:#000000;fill-opacity:1;fill-rule:nonzero;stroke:none;stroke-width:0.1"
       d="m 1.19883,1.71406 h 136.047 v 15.766 H 1.19883 Z" /><path
       inkscape:connector-curvature="0"
       id="path833"
       style="fill:none;stroke:#250000;stroke-width:2.25731993;stroke-linecap:butt;stroke-linejoin:miter;stroke-miterlimit:4;stroke-dasharray:none;stroke-opacity:1"
       d="m 1.19883,1.71406 h 136.047 v 15.766 H 1.19883 Z" /><path
       inkscape:connector-curvature="0"
       id="path847"
       style="fill:none;stroke:#000000;stroke-width:0.75;stroke-linecap:butt;stroke-linejoin:miter;stroke-miterlimit:4;stroke-dasharray:none;stroke-opacity:1"
       d="M 70.1129,284.176 V 17.0781" /><path
       inkscape:connector-curvature="0"
       id="path849"
       style="fill:#000000;fill-opacity:1;fill-rule:nonzero;stroke:none;stroke-width:0.1"
       d="m 37.2891,341.797 h 65.6719 v -26.395 l 32.836,-30.136 H 4.45313 l 32.83597,30.136 z" /><path
       inkscape:connector-curvature="0"
       id="path851"
       style="fill:none;stroke:#000000;stroke-width:3.14578986;stroke-linecap:butt;stroke-linejoin:miter;stroke-miterlimit:4;stroke-dasharray:none;stroke-opacity:1"
       d="m 37.2891,341.797 h 65.6719 v -26.395 l 32.836,-30.136 H 4.45313 l 32.83597,30.136 z" /><path
       inkscape:connector-curvature="0"
       id="path853"
       style="fill:none;stroke:#ff0101;stroke-width:1.47889006;stroke-linecap:butt;stroke-linejoin:miter;stroke-miterlimit:4;stroke-dasharray:none;stroke-opacity:1"
       d="M 100.063,77.7031 V 101.973" /><path
       inkscape:connector-curvature="0"
       id="path855"
       style="fill:#ff0000;fill-opacity:1;fill-rule:evenodd;stroke:none;stroke-width:0.1"
       d="m 96.4801,94.234 3.5669,9.696 3.566,-9.696 c -2.105,1.5512 -4.9841,1.539 -7.1329,0 z" /><path
       inkscape:connector-curvature="0"
       id="path857"
       style="fill:none;stroke:#ff0101;stroke-width:0.55458397;stroke-linecap:butt;stroke-linejoin:round;stroke-miterlimit:4;stroke-dasharray:none;stroke-opacity:1"
       d="m 96.4801,94.234 3.5669,9.696 3.566,-9.696 c -2.105,1.5512 -4.9841,1.539 -7.1329,0 z" /><path
       inkscape:connector-curvature="0"
       id="path859"
       style="fill:none;stroke:#ff0101;stroke-width:1.47889006;stroke-linecap:butt;stroke-linejoin:miter;stroke-miterlimit:4;stroke-dasharray:none;stroke-opacity:1"
       d="m 100.063,175.203 v 24.27" /><path
       inkscape:connector-curvature="0"
       id="path861"
       style="fill:#ff0000;fill-opacity:1;fill-rule:evenodd;stroke:none;stroke-width:0.1"
       d="m 96.4801,191.734 3.5669,9.696 3.566,-9.696 c -2.105,1.551 -4.9841,1.539 -7.1329,0 z" /><path
       inkscape:connector-curvature="0"
       id="path863"
       style="fill:none;stroke:#ff0101;stroke-width:0.55458397;stroke-linecap:butt;stroke-linejoin:round;stroke-miterlimit:4;stroke-dasharray:none;stroke-opacity:1"
       d="m 96.4801,191.734 3.5669,9.696 3.566,-9.696 c -2.105,1.551 -4.9841,1.539 -7.1329,0 z" /><path
       inkscape:connector-curvature="0"
       id="path865"
       style="fill:none;stroke:#ff0101;stroke-width:1.47889006;stroke-linecap:butt;stroke-linejoin:miter;stroke-miterlimit:4;stroke-dasharray:none;stroke-opacity:1"
       d="m 34.0629,249.707 v -24.27" /><path
       inkscape:connector-curvature="0"
       id="path867"
       style="fill:#ff0000;fill-opacity:1;fill-rule:evenodd;stroke:none;stroke-width:0.1"
       d="m 37.641,233.176 -3.5672,-9.696 -3.5617,9.696 c 2.1008,-1.551 4.984,-1.539 7.1289,0 z" /><path
       inkscape:connector-curvature="0"
       id="path869"
       style="fill:none;stroke:#ff0101;stroke-width:0.55458397;stroke-linecap:butt;stroke-linejoin:round;stroke-miterlimit:4;stroke-dasharray:none;stroke-opacity:1"
       d="m 37.641,233.176 -3.5672,-9.696 -3.5617,9.696 c 2.1008,-1.551 4.984,-1.539 7.1289,0 z" /><path
       inkscape:connector-curvature="0"
       id="path871"
       style="fill:none;stroke:#ff0101;stroke-width:1.47889006;stroke-linecap:butt;stroke-linejoin:miter;stroke-miterlimit:4;stroke-dasharray:none;stroke-opacity:1"
       d="m 34.0629,152.207 v -24.27" /><path
       inkscape:connector-curvature="0"
       id="path873"
       style="fill:#ff0000;fill-opacity:1;fill-rule:evenodd;stroke:none;stroke-width:0.1"
       d="m 37.641,135.676 -3.5672,-9.696 -3.5617,9.696 c 2.1008,-1.551 4.984,-1.543 7.1289,0 z" /><path
       inkscape:connector-curvature="0"
       id="path875"
       style="fill:none;stroke:#ff0101;stroke-width:0.55458397;stroke-linecap:butt;stroke-linejoin:round;stroke-miterlimit:4;stroke-dasharray:none;stroke-opacity:1"
       d="m 37.641,135.676 -3.5672,-9.696 -3.5617,9.696 c 2.1008,-1.551 4.984,-1.543 7.1289,0 z" /><path
       inkscape:connector-curvature="0"
       id="path877"
       style="fill:none;stroke:#ff0101;stroke-width:1.47889006;stroke-linecap:butt;stroke-linejoin:miter;stroke-miterlimit:4;stroke-dasharray:none;stroke-opacity:1"
       d="M 34.0629,54.707 V 30.4371" /><path
       inkscape:connector-curvature="0"
       id="path879"
       style="fill:#ff0000;fill-opacity:1;fill-rule:evenodd;stroke:none;stroke-width:0.1"
       d="m 37.641,38.1762 -3.5672,-9.6961 -3.5617,9.6961 c 2.1008,-1.5512 4.984,-1.543 7.1289,0 z" /><path
       inkscape:connector-curvature="0"
       id="path881"
       style="fill:none;stroke:#ff0101;stroke-width:0.55458397;stroke-linecap:butt;stroke-linejoin:round;stroke-miterlimit:4;stroke-dasharray:none;stroke-opacity:1"
       d="m 37.641,38.1762 -3.5672,-9.6961 -3.5617,9.6961 c 2.1008,-1.5512 4.984,-1.543 7.1289,0 z" /></g></svg>